<svg id="visual" viewBox="0 0 900 600" width="900" height="600" xmlns="http://www.w3.org/2000/svg" xmlns:xlink="http://www.w3.org/1999/xlink" version="1.1"><rect x="0" y="0" width="900" height="600" fill="#f60d54"></rect><path d="M0 254L7.5 284.5C15 315 30 376 45 396C60 416 75 395 90 386.7C105 378.3 120 382.7 135 354.2C150 325.7 165 264.3 180 241.5C195 218.7 210 234.3 225 238.5C240 242.7 255 235.3 270 236.2C285 237 300 246 315 247.8C330 249.7 345 244.3 360 249.2C375 254 390 269 405 283C420 297 435 310 450 306.2C465 302.3 480 281.7 495 275C510 268.3 525 275.7 540 296.8C555 318 570 353 585 342.3C600 331.7 615 275.3 630 257.7C645 240 660 261 675 293.3C690 325.7 705 369.3 720 383.2C735 397 750 381 765 386.2C780 391.3 795 417.7 810 415.2C825 412.7 840 381.3 855 336.2C870 291 885 232 892.5 202.5L900 173L900 601L892.5 601C885 601 870 601 855 601C840 601 825 601 810 601C795 601 780 601 765 601C750 601 735 601 720 601C705 601 690 601 675 601C660 601 645 601 630 601C615 601 600 601 585 601C570 601 555 601 540 601C525 601 510 601 495 601C480 601 465 601 450 601C435 601 420 601 405 601C390 601 375 601 360 601C345 601 330 601 315 601C300 601 285 601 270 601C255 601 240 601 225 601C210 601 195 601 180 601C165 601 150 601 135 601C120 601 105 601 90 601C75 601 60 601 45 601C30 601 15 601 7.5 601L0 601Z" fill="#0d0d0d" stroke-linecap="round" stroke-linejoin="miter"></path></svg>